{
  "source": "C:\\Users\\Peter\\Desktop\\stuff\\MIUN\\quantitative_research\\video_compression\\videos\\BVI-HD\\BVI-HD_CDVL_videos\\ORIG\\KineticFastPainting_1920x1080_60fps.mp4",
  "output": "C:\\Users\\Peter\\Desktop\\stuff\\MIUN\\quantitative_research\\video_compression\\compressed_videos\\BVI-HD\\av1\\3\\KineticFastPainting_1920x1080_60fps_av1.mkv",
  "codec": "av1",
  "ok": "Input #0, mov,mp4,m4a,3gp,3g2,mj2, from 'C:\\Users\\Peter\\Desktop\\stuff\\MIUN\\quantitative_research\\video_compression\\videos\\BVI-HD\\BVI-HD_CDVL_videos\\ORIG\\KineticFastPainting_1920x1080_60fps.mp4':\n  Metadata:\n    major_brand     : isom\n    minor_version   : 512\n    compatible_brands: isomiso2avc1mp41\n    encoder         : Lavf54.28.101\n  Duration: 00:00:05.00, start: 0.000000, bitrate: 477980 kb/s\n  Stream #0:0[0x1](und): Video: h264 (High 4:4:4 Predictive) (avc1 / 0x31637661), yuv420p(progressive), 1920x1080, 477974 kb/s, 60 fps, 60 tbr, 60 tbn (default)\n    Metadata:\n      handler_name    : VideoHandler\n      vendor_id       : [0][0][0][0]\n[out#0/matroska @ 0000016ac79c9000] Codec AVOption b:a (set bitrate (in bits/s)) has not been used for any stream. The most likely reason is either wrong type (e.g. a video option with no video streams) or that it is a private option of some decoder which was not actually used for any stream.\nStream mapping:\n  Stream #0:0 -> #0:0 (h264 (native) -> av1 (libsvtav1))\nPress [q] to stop, [?] for help\nSvt[info]: -------------------------------------------\nSvt[info]: SVT [version]:\tSVT-AV1 Encoder Lib v3.1.0-19-g6ecfe8ec\nSvt[info]: SVT [build]  :\tGCC 15.2.0\t 64 bit\nSvt[info]: LIB Build date: Aug 17 2025 11:37:13\nSvt[info]: -------------------------------------------\nSvt[info]: Level of Parallelism: 5\nSvt[info]: Number of PPCS 93\nSvt[info]: [asm level on system : up to avx2]\nSvt[info]: [asm level selected : up to avx2]\nSvt[info]: -------------------------------------------\nSvt[info]: SVT [config]: main profile\ttier (auto)\tlevel (auto)\nSvt[info]: SVT [config]: width / height / fps numerator / fps denominator \t\t: 1920 / 1080 / 60 / 1\nSvt[info]: SVT [config]: bit-depth / color format \t\t\t\t\t: 8 / YUV420\nSvt[info]: SVT [config]: preset / tune / pred struct \t\t\t\t\t: 4 / PSNR / random access\nSvt[info]: SVT [config]: gop size / mini-gop size / key-frame type \t\t\t: 321 / 16 / key frame\nSvt[info]: SVT [config]: BRC mode / target bitrate (kbps)\t\t\t\t: VBR / 3000 \nSvt[info]: SVT [config]: AQ mode / Variance Boost \t\t\t\t\t: 2 / 0\nSvt[info]: SVT [config]: sharpness / luminance-based QP bias \t\t\t\t: 0 / 0\nSvt[info]: SVT [config]: QP scale compress strength \t\t\t\t\t: 0\nSvt[info]: -------------------------------------------\nOutput #0, matroska, to 'C:\\Users\\Peter\\Desktop\\stuff\\MIUN\\quantitative_research\\video_compression\\compressed_videos\\BVI-HD\\av1\\3\\KineticFastPainting_1920x1080_60fps_av1.mkv':\n  Metadata:\n    major_brand     : isom\n    minor_version   : 512\n    compatible_brands: isomiso2avc1mp41\n    encoder         : Lavf62.3.100\n  Stream #0:0(und): Video: av1 (AV01 / 0x31305641), yuv420p(tv, progressive), 1920x1080, q=2-31, 3000 kb/s, 60 fps, 1k tbn (default)\n    Metadata:\n      encoder         : Lavc62.11.100 libsvtav1\n      handler_name    : VideoHandler\n      vendor_id       : [0][0][0][0]\n    Side data:\n      cpb: bitrate max/min/avg: 0/0/3000000 buffer size: 3000000 vbv_delay: N/A\nframe=    0 fps=0.0 q=0.0 size=       0KiB time=N/A bitrate=N/A speed=N/A elapsed=0:00:01.04    \nframe=    0 fps=0.0 q=0.0 size=       0KiB time=N/A bitrate=N/A speed=N/A elapsed=0:00:01.58    \nframe=    0 fps=0.0 q=0.0 size=       0KiB time=N/A bitrate=N/A speed=N/A elapsed=0:00:02.25    \nframe=    0 fps=0.0 q=0.0 size=       0KiB time=N/A bitrate=N/A speed=N/A elapsed=0:00:02.86    \nframe=    0 fps=0.0 q=0.0 size=       0KiB time=N/A bitrate=N/A speed=N/A elapsed=0:00:03.48    \nframe=    0 fps=0.0 q=0.0 size=       0KiB time=N/A bitrate=N/A speed=N/A elapsed=0:00:04.12    \nframe=    0 fps=0.0 q=0.0 size=       0KiB time=N/A bitrate=N/A speed=N/A elapsed=0:00:04.65    \nframe=    1 fps=0.2 q=35.0 size=       1KiB time=00:00:00.00 bitrate=N/A speed=   0x elapsed=0:00:05.22    \nframe=    1 fps=0.2 q=35.0 size=       1KiB time=00:00:00.00 bitrate=N/A speed=   0x elapsed=0:00:05.83    \nframe=    1 fps=0.2 q=35.0 size=       1KiB time=00:00:00.00 bitrate=N/A speed=   0x elapsed=0:00:06.44    \nframe=    4 fps=0.6 q=50.0 size=       1KiB time=00:00:00.05 bitrate= 113.9kbits/s speed=0.00713x elapsed=0:00:07.01    \nframe=    6 fps=0.8 q=50.0 size=       1KiB time=00:00:00.08 bitrate=  68.4kbits/s speed=0.011x elapsed=0:00:07.57    \nframe=    8 fps=1.0 q=48.0 size=       1KiB time=00:00:00.11 bitrate=  48.8kbits/s speed=0.0144x elapsed=0:00:08.10    \nframe=   11 fps=1.3 q=47.0 size=       1KiB time=00:00:00.16 bitrate=  34.2kbits/s speed=0.0192x elapsed=0:00:08.66    \nframe=   13 fps=1.4 q=44.0 size=       1KiB time=00:00:00.20 bitrate=  28.5kbits/s speed=0.0218x elapsed=0:00:09.18    \nframe=   18 fps=1.9 q=50.0 size=       1KiB time=00:00:00.26 bitrate=  21.4kbits/s speed=0.0275x elapsed=0:00:09.71    \nframe=   20 fps=1.9 q=50.0 size=       1KiB time=00:00:00.31 bitrate=  18.0kbits/s speed=0.0308x elapsed=0:00:10.27    \nframe=   23 fps=2.1 q=45.0 size=       1KiB time=00:00:00.36 bitrate=  15.5kbits/s speed=0.0338x elapsed=0:00:10.83    \nframe=   26 fps=2.3 q=50.0 size=       1KiB time=00:00:00.41 bitrate=  13.7kbits/s speed=0.0365x elapsed=0:00:11.40    \nframe=   30 fps=2.5 q=52.0 size=       1KiB time=00:00:00.48 bitrate=  11.8kbits/s speed=0.0404x elapsed=0:00:11.97    \nframe=   35 fps=2.8 q=50.0 size=       1KiB time=00:00:00.56 bitrate=  10.1kbits/s speed=0.0452x elapsed=0:00:12.54    \nframe=   38 fps=2.9 q=52.0 size=       1KiB time=00:00:00.61 bitrate=   9.2kbits/s speed=0.0471x elapsed=0:00:13.08    \nframe=   40 fps=2.9 q=52.0 size=       1KiB time=00:00:00.65 bitrate=   8.8kbits/s speed=0.0477x elapsed=0:00:13.62    \nframe=   43 fps=3.0 q=49.0 size=       1KiB time=00:00:00.70 bitrate=   8.1kbits/s speed=0.0493x elapsed=0:00:14.19    \nframe=   49 fps=3.3 q=38.0 size=       1KiB time=00:00:00.80 bitrate=   7.1kbits/s speed=0.0542x elapsed=0:00:14.74    \nframe=   52 fps=3.4 q=53.0 size=       1KiB time=00:00:00.85 bitrate=   6.7kbits/s speed=0.0555x elapsed=0:00:15.31    \nframe=   55 fps=3.5 q=52.0 size=       1KiB time=00:00:00.90 bitrate=   6.3kbits/s speed=0.0568x elapsed=0:00:15.84    \nframe=   59 fps=3.6 q=50.0 size=       1KiB time=00:00:00.96 bitrate=   5.9kbits/s speed=0.0588x elapsed=0:00:16.43    \nframe=   64 fps=3.8 q=53.0 size=       1KiB time=00:00:01.05 bitrate=   5.4kbits/s speed=0.0616x elapsed=0:00:17.04    \nframe=   68 fps=3.9 q=53.0 size=       1KiB time=00:00:01.11 bitrate=   5.1kbits/s speed=0.0633x elapsed=0:00:17.63    \nframe=   71 fps=3.9 q=48.0 size=       1KiB time=00:00:01.16 bitrate=   4.9kbits/s speed=0.064x elapsed=0:00:18.23    \nframe=   74 fps=3.9 q=53.0 size=       1KiB time=00:00:01.21 bitrate=   4.7kbits/s speed=0.0646x elapsed=0:00:18.84    \nframe=   76 fps=3.9 q=54.0 size=       1KiB time=00:00:01.25 bitrate=   4.6kbits/s speed=0.0646x elapsed=0:00:19.35    \nframe=   82 fps=4.1 q=54.0 size=       1KiB time=00:00:01.35 bitrate=   4.2kbits/s speed=0.0679x elapsed=0:00:19.88    \nframe=   85 fps=4.2 q=50.0 size=       1KiB time=00:00:01.40 bitrate=   4.1kbits/s speed=0.0685x elapsed=0:00:20.44    \nframe=   87 fps=4.1 q=52.0 size=       1KiB time=00:00:01.43 bitrate=   4.0kbits/s speed=0.0682x elapsed=0:00:21.01    \nframe=   91 fps=4.2 q=51.0 size=       1KiB time=00:00:01.50 bitrate=   3.8kbits/s speed=0.0697x elapsed=0:00:21.53    \nframe=   96 fps=4.4 q=55.0 size=       1KiB time=00:00:01.58 bitrate=   3.6kbits/s speed=0.0718x elapsed=0:00:22.05    \nframe=   99 fps=4.4 q=53.0 size=       1KiB time=00:00:01.63 bitrate=   3.5kbits/s speed=0.0723x elapsed=0:00:22.57    \nframe=  103 fps=4.5 q=50.0 size=       1KiB time=00:00:01.70 bitrate=   3.4kbits/s speed=0.0736x elapsed=0:00:23.10    \nframe=  106 fps=4.5 q=55.0 size=       1KiB time=00:00:01.75 bitrate=   3.3kbits/s speed=0.0737x elapsed=0:00:23.73    \nframe=  110 fps=4.5 q=55.0 size=       1KiB time=00:00:01.81 bitrate=   3.1kbits/s speed=0.0747x elapsed=0:00:24.32    \nframe=  115 fps=4.6 q=53.0 size=       1KiB time=00:00:01.90 bitrate=   3.0kbits/s speed=0.0764x elapsed=0:00:24.86    \nframe=  119 fps=4.7 q=53.0 size=       1KiB time=00:00:01.95 bitrate=   2.9kbits/s speed=0.0768x elapsed=0:00:25.39    \nframe=  123 fps=4.7 q=52.0 size=       1KiB time=00:00:02.03 bitrate=   2.8kbits/s speed=0.0782x elapsed=0:00:26.00    \nframe=  128 fps=4.8 q=55.0 size=       1KiB time=00:00:02.11 bitrate=   2.7kbits/s speed=0.0797x elapsed=0:00:26.55    \nframe=  131 fps=4.8 q=53.0 size=       1KiB time=00:00:02.16 bitrate=   2.6kbits/s speed=0.08x elapsed=0:00:27.06    \nframe=  135 fps=4.9 q=53.0 size=       1KiB time=00:00:02.23 bitrate=   2.6kbits/s speed=0.0809x elapsed=0:00:27.61    \nframe=  138 fps=4.9 q=55.0 size=       1KiB time=00:00:02.28 bitrate=   2.5kbits/s speed=0.081x elapsed=0:00:28.19    \nframe=  142 fps=4.9 q=55.0 size=       1KiB time=00:00:02.35 bitrate=   2.4kbits/s speed=0.0818x elapsed=0:00:28.73    \nframe=  147 fps=5.0 q=53.0 size=       1KiB time=00:00:02.43 bitrate=   2.3kbits/s speed=0.083x elapsed=0:00:29.30    \nframe=  150 fps=5.0 q=55.0 size=       1KiB time=00:00:02.48 bitrate=   2.3kbits/s speed=0.0832x elapsed=0:00:29.84    \nframe=  154 fps=5.1 q=55.0 size=       1KiB time=00:00:02.55 bitrate=   2.2kbits/s speed=0.0839x elapsed=0:00:30.38    \nframe=  159 fps=5.1 q=51.0 size=       1KiB time=00:00:02.61 bitrate=   2.2kbits/s speed=0.0846x elapsed=0:00:30.94    \nframe=  163 fps=5.2 q=52.0 size=       1KiB time=00:00:02.70 bitrate=   2.1kbits/s speed=0.0856x elapsed=0:00:31.54    \nframe=  166 fps=5.2 q=54.0 size=       1KiB time=00:00:02.75 bitrate=   2.1kbits/s speed=0.0857x elapsed=0:00:32.07    \nframe=  168 fps=5.2 q=54.0 size=       1KiB time=00:00:02.78 bitrate=   2.0kbits/s speed=0.0853x elapsed=0:00:32.61    \nframe=  171 fps=5.2 q=51.0 size=       1KiB time=00:00:02.83 bitrate=   2.0kbits/s speed=0.0855x elapsed=0:00:33.15    \nframe=  177 fps=5.2 q=41.0 size=       1KiB time=00:00:02.93 bitrate=   1.9kbits/s speed=0.087x elapsed=0:00:33.73    \nframe=  181 fps=5.3 q=50.0 size=       1KiB time=00:00:03.00 bitrate=   1.9kbits/s speed=0.0876x elapsed=0:00:34.25    \nframe=  184 fps=5.3 q=54.0 size=       1KiB time=00:00:03.05 bitrate=   1.9kbits/s speed=0.0877x elapsed=0:00:34.77    \nframe=  188 fps=5.3 q=55.0 size=       1KiB time=00:00:03.11 bitrate=   1.8kbits/s speed=0.0883x elapsed=0:00:35.31    \nframe=  195 fps=5.4 q=53.0 size=       1KiB time=00:00:03.23 bitrate=   1.8kbits/s speed=0.0902x elapsed=0:00:35.83    \nframe=  199 fps=5.5 q=53.0 size=       1KiB time=00:00:03.30 bitrate=   1.7kbits/s speed=0.0906x elapsed=0:00:36.40    \nframe=  205 fps=5.5 q=49.0 size=       1KiB time=00:00:03.35 bitrate=   1.7kbits/s speed=0.0905x elapsed=0:00:37.00    \nframe=  209 fps=5.6 q=40.0 size=       1KiB time=00:00:03.43 bitrate=   1.7kbits/s speed=0.0914x elapsed=0:00:37.58    \nframe=  213 fps=5.6 q=51.0 size=       1KiB time=00:00:03.53 bitrate=   1.6kbits/s speed=0.0925x elapsed=0:00:38.19    \nframe=  217 fps=5.6 q=48.0 size=       1KiB time=00:00:03.60 bitrate=   1.6kbits/s speed=0.0928x elapsed=0:00:38.80    \nframe=  219 fps=5.6 q=52.0 size=       1KiB time=00:00:03.63 bitrate=   1.6kbits/s speed=0.0922x elapsed=0:00:39.41    \nframe=  223 fps=5.6 q=51.0 size=       1KiB time=00:00:03.66 bitrate=   1.6kbits/s speed=0.0916x elapsed=0:00:40.02    \nframe=  227 fps=5.6 q=53.0 size=       1KiB time=00:00:03.76 bitrate=   1.5kbits/s speed=0.0927x elapsed=0:00:40.62    \nframe=  231 fps=5.6 q=50.0 size=       1KiB time=00:00:03.83 bitrate=   1.5kbits/s speed=0.0931x elapsed=0:00:41.16    \nframe=  233 fps=5.6 q=48.0 size=       1KiB time=00:00:03.86 bitrate=   1.5kbits/s speed=0.0926x elapsed=0:00:41.74    \nframe=  237 fps=5.6 q=49.0 size=       1KiB time=00:00:03.93 bitrate=   1.4kbits/s speed=0.0929x elapsed=0:00:42.33    \nframe=  241 fps=5.6 q=41.0 size=       1KiB time=00:00:04.00 bitrate=   1.4kbits/s speed=0.0932x elapsed=0:00:42.92    \nframe=  247 fps=5.7 q=54.0 size=       1KiB time=00:00:04.06 bitrate=   1.4kbits/s speed=0.0935x elapsed=0:00:43.47    \nframe=  249 fps=5.6 q=48.0 size=       1KiB time=00:00:04.13 bitrate=   1.4kbits/s speed=0.0937x elapsed=0:00:44.10    \nframe=  253 fps=5.7 q=50.0 size=       1KiB time=00:00:04.20 bitrate=   1.4kbits/s speed=0.094x elapsed=0:00:44.67    \nframe=  257 fps=5.7 q=41.0 size=       1KiB time=00:00:04.26 bitrate=   1.3kbits/s speed=0.0944x elapsed=0:00:45.21    \nframe=  261 fps=5.7 q=52.0 size=       1KiB time=00:00:04.33 bitrate=   1.3kbits/s speed=0.0947x elapsed=0:00:45.73    \nframe=  265 fps=5.7 q=49.0 size=       1KiB time=00:00:04.40 bitrate=   1.3kbits/s speed=0.0951x elapsed=0:00:46.27    \nframe=  269 fps=5.7 q=50.0 size=       1KiB time=00:00:04.46 bitrate=   1.3kbits/s speed=0.0955x elapsed=0:00:46.79    \nframe=  277 fps=5.9 q=54.0 size=       1KiB time=00:00:04.60 bitrate=   1.2kbits/s speed=0.0972x elapsed=0:00:47.30    \nframe=  281 fps=5.9 q=50.0 size=       1KiB time=00:00:04.66 bitrate=   1.2kbits/s speed=0.0976x elapsed=0:00:47.81    \nframe=  285 fps=5.9 q=54.0 size=       1KiB time=00:00:04.73 bitrate=   1.2kbits/s speed=0.0979x elapsed=0:00:48.36    \n[out#0/matroska @ 0000016ac79c9000] video:1991KiB audio:0KiB subtitle:0KiB other streams:0KiB global headers:0KiB muxing overhead: 0.104803%\nframe=  300 fps=6.2 q=54.0 Lsize=    1993KiB time=00:00:04.98 bitrate=3276.9kbits/s speed=0.102x elapsed=0:00:48.72    \n",
  "seconds": 49.21167540550232,
  "probe_out": {}
}